<?xml version="1.0" encoding="UTF-8"?>
<!DOCTYPE svg PUBLIC "-//W3C//DTD SVG 1.1//EN" "http://www.w3.org/Graphics/SVG/1.1/DTD/svg11.dtd">
<!-- Creator: CorelDRAW -->
<svg xmlns="http://www.w3.org/2000/svg" xml:space="preserve" width="440mm" height="40mm" style="shape-rendering:geometricPrecision; text-rendering:geometricPrecision; image-rendering:optimizeQuality; fill-rule:evenodd; clip-rule:evenodd"
viewBox="0 0 440 40">
 <defs>
  <style type="text/css">
   <![CDATA[
    .fil2 {fill:#098BB9}
    .fil3 {fill:#2C579C}
    .fil0 {fill:#5D8A96}
    .fil1 {fill:#74A35B}
   ]]>
  </style>
 </defs>
 <g id="Layer_x0020_1">
  <metadata id="CorelCorpID_0Corel-Layer"/>
  <g id="_196846224">
   <path id="_196847184" class="fil0" d="M108.329 34.7831c14.3376,-1.6078 21.6497,-4.1693 32.7699,-4.2609 2.2088,-0.0182 4.2612,0.0155 6.1889,0.09l0 0.0009c12.9964,0.5041 20.1898,2.9007 29.6735,4.339 -8.8993,1.3598 -19.1277,3.4848 -29.6735,4.2214l0 0.0015c-1.7388,0.1211 -3.4863,0.2057 -5.2377,0.2417 -12.6658,0.2591 -22.5744,-2.6152 -33.7211,-4.6336zm106.41 -4.2609c17.1203,-0.1405 24.9886,2.7776 35.8835,4.4299 -10.3726,1.585 -22.5499,4.2112 -34.9324,4.4646 -12.6656,0.2591 -22.5743,-2.6152 -33.7209,-4.6336 14.3374,-1.6078 21.6496,-4.1693 32.7698,-4.2609zm-147.301 0c17.1203,-0.1405 24.9885,2.7776 35.8835,4.4299 -10.3727,1.585 -22.5501,4.2112 -34.9324,4.4646 -12.6657,0.2591 -22.5743,-2.6152 -33.721,-4.6336 14.3375,-1.6078 21.6497,-4.1693 32.7699,-4.2609zm-67.4723 8.6528l0 -8.5628c13.0097,0.5023 20.2057,2.9008 29.6946,4.3399 -8.9053,1.3607 -19.1414,3.4877 -29.6946,4.2229zm328.924 -4.3919c14.3375,-1.6078 21.6496,-4.1693 32.7699,-4.2609 2.2087,-0.0182 4.2612,0.0155 6.1888,0.09l0 0.0009c12.9965,0.5041 20.1898,2.9007 29.6736,4.339 -8.8993,1.3598 -19.1277,3.4848 -29.6736,4.2214l0 0.0015c-1.7388,0.1211 -3.4862,0.2057 -5.2377,0.2417 -12.6657,0.2591 -22.5744,-2.6152 -33.721,-4.6336zm106.41 -4.2609c1.6624,-0.0136 3.2364,0.0022 4.7356,0.0422l0 8.7036c-1.2583,0.0717 -2.5202,0.1228 -3.7845,0.1487 -12.6656,0.2591 -22.5743,-2.6152 -33.721,-4.6336 14.3375,-1.6078 21.6497,-4.1693 32.7699,-4.2609zm-147.301 0c17.1203,-0.1405 24.9885,2.7776 35.8835,4.4299 -10.3726,1.585 -22.55,4.2112 -34.9324,4.4646 -12.6656,0.2591 -22.5743,-2.6152 -33.7209,-4.6336 14.3374,-1.6078 21.6496,-4.1693 32.7698,-4.2609z"/>
   <path id="_197539192" class="fil1" d="M147.288 12.3389l0 0.3739c-0.4131,-0.0776 -0.8272,-0.1546 -1.2434,-0.2299 0.4207,-0.0473 0.8343,-0.0953 1.2434,-0.144z"/>
   <path id="_197538208" class="fil2" d="M287.935 12.6519c-10.3719,1.5848 -22.5493,4.2107 -34.9316,4.4645 -12.1927,0.2498 -21.8317,-2.4044 -32.4781,-4.4039l0 -0.3736c13.5243,-1.6124 20.7325,-4.0283 31.5271,-4.117 17.1198,-0.1407 24.9882,2.7778 35.8826,4.43zm147.301 0c-10.3721,1.5848 -22.5494,4.2107 -34.9318,4.4645 -12.1927,0.2498 -21.8315,-2.4044 -32.4779,-4.4039l0 -0.3736c13.5242,-1.6124 20.7326,-4.0283 31.5274,-4.117 17.1196,-0.1407 24.988,2.7778 35.8823,4.43zm-109.523 -4.43c17.1202,-0.1407 24.9885,2.7778 35.8824,4.43 -10.3718,1.5848 -22.5491,4.2107 -34.9313,4.4645 -12.666,0.2596 -22.5749,-2.6152 -33.7214,-4.6334 14.3364,-1.608 21.6493,-4.1697 32.7703,-4.2611zm-258.339 4.4298c-10.372,1.5849 -22.5494,4.211 -34.9318,4.4645 -12.1926,0.2499 -21.8313,-2.4042 -32.4779,-4.4035l0 -0.3738c13.5245,-1.6122 20.7326,-4.0282 31.5272,-4.1171 17.1199,-0.1405 24.9882,2.7778 35.8825,4.4299zm147.301 0c-10.3721,1.5849 -22.5494,4.211 -34.9318,4.4645 -12.1925,0.2499 -21.8312,-2.4042 -32.4779,-4.4035l0 -0.3738c13.5244,-1.6122 20.7325,-4.0282 31.5272,-4.1171 17.1198,-0.1405 24.9882,2.7778 35.8825,4.4299zm-109.523 -4.4299c17.1198,-0.1405 24.9881,2.7778 35.8825,4.4299 -10.3721,1.5849 -22.5495,4.211 -34.9319,4.4645 -12.6657,0.2596 -22.5749,-2.6149 -33.7215,-4.6333 14.3366,-1.6079 21.6496,-4.1694 32.7709,-4.2611z"/>
   <path id="_197538688" class="fil3" d="M287.935 27.6265c-10.372,1.5847 -22.5493,4.2108 -34.9317,4.4645 -12.1926,0.2499 -21.8313,-2.4043 -32.4779,-4.4035l0 -0.3739c13.5244,-1.6123 20.7325,-4.0281 31.5271,-4.117 17.1199,-0.1405 24.9883,2.7777 35.8825,4.4299zm78.6692 -0.1689c10.9167,-1.2263 21.7198,-4.1702 32.7497,-4.261 17.1198,-0.1405 24.9881,2.7777 35.8825,4.4299 -10.3721,1.5847 -22.5494,4.2108 -34.9319,4.4645 -11.5748,0.2371 -22.4495,-2.5961 -33.7003,-4.6334zm68.5871 -12.231c1.7025,-0.014 3.3117,0.003 4.8432,0.0453l0 8.6947c-1.2939,0.075 -2.5915,0.1279 -3.8917,0.1545 -12.6665,0.2593 -22.5748,-2.615 -33.7222,-4.6334 14.3379,-1.6083 21.6499,-4.1696 32.7707,-4.2611zm-37.7781 4.4297c-11.5912,1.7709 -23.1461,4.2243 -34.9104,4.4648 -12.6668,0.2593 -22.5748,-2.615 -33.7224,-4.6334 14.3379,-1.6083 21.6501,-4.1696 32.7706,-4.2611 12.2276,-0.0995 23.8218,2.6039 35.8622,4.4297zm0.108 -14.6536c-11.5912,1.771 -23.1467,4.2239 -34.9113,4.4644 -12.6657,0.2593 -22.5744,-2.6151 -33.721,-4.6335 14.3375,-1.6077 21.6496,-4.1692 32.7699,-4.2608 12.2267,-0.1005 23.8244,2.6041 35.8624,4.4299zm37.7777 -4.4299c1.6624,-0.0137 3.2364,0.002 4.7356,0.0421l0 8.7039c-1.2583,0.0717 -2.5202,0.1224 -3.7845,0.1483 -12.6656,0.2593 -22.5743,-2.6151 -33.721,-4.6335 14.3375,-1.6077 21.6497,-4.1692 32.7699,-4.2608zm-109.585 22.6238c17.1198,-0.1405 24.9882,2.7777 35.8825,4.4299 -10.3721,1.5847 -22.5494,4.2108 -34.9318,4.4645 -12.6658,0.2596 -22.5749,-2.615 -33.7215,-4.6334 14.3365,-1.6079 21.6496,-4.1694 32.7708,-4.261zm-37.8237 -7.97c17.1207,-0.1403 24.9882,2.7774 35.8829,4.4297 -10.3726,1.5848 -22.5505,4.2114 -34.9315,4.4648 -12.6666,0.2593 -22.5747,-2.615 -33.7223,-4.6334 14.338,-1.6083 21.65,-4.1696 32.7709,-4.2611zm0.1075 -14.6538c17.1203,-0.1406 24.9885,2.7775 35.8835,4.4299 -10.3726,1.585 -22.55,4.2111 -34.9324,4.4644 -12.6656,0.2593 -22.5743,-2.6151 -33.7209,-4.6335 14.3374,-1.6077 21.6496,-4.1692 32.7698,-4.2608zm-220.623 27.0537c-10.372,1.5847 -22.5494,4.2108 -34.9318,4.4645 -12.1926,0.2499 -21.8313,-2.4043 -32.4779,-4.4035l0 -0.3739c13.5245,-1.6123 20.7326,-4.0281 31.5272,-4.117 17.1199,-0.1405 24.9882,2.7777 35.8825,4.4299zm78.6691 -0.1689c10.9167,-1.2263 21.7198,-4.1702 32.7497,-4.261 17.1198,-0.1405 24.9882,2.7777 35.8825,4.4299 -10.3721,1.5847 -22.5494,4.2108 -34.9318,4.4645 -11.5748,0.2371 -22.4496,-2.5961 -33.7004,-4.6334zm68.5872 -12.231c17.1207,-0.1403 24.9882,2.7774 35.883,4.4297 -10.3727,1.5848 -22.5506,4.2114 -34.9316,4.4648 -12.6665,0.2593 -22.5747,-2.615 -33.7222,-4.6334 14.338,-1.6083 21.65,-4.1696 32.7708,-4.2611zm-37.7781 4.4297c-11.5912,1.7709 -23.1461,4.2243 -34.9105,4.4648 -12.6667,0.2593 -22.5748,-2.615 -33.7223,-4.6334 14.3378,-1.6083 21.65,-4.1696 32.7706,-4.2611 12.2276,-0.0995 23.8218,2.6039 35.8622,4.4297zm0.1079 -14.6536c-11.5912,1.771 -23.1467,4.2239 -34.9112,4.4644 -12.6658,0.2593 -22.5744,-2.6151 -33.7211,-4.6335 14.3376,-1.6077 21.6497,-4.1692 32.7699,-4.2608 12.2267,-0.1005 23.8245,2.6041 35.8624,4.4299zm37.7777 -4.4299c17.1203,-0.1406 24.9886,2.7775 35.8835,4.4299 -10.3726,1.585 -22.5499,4.2111 -34.9324,4.4644 -12.6656,0.2593 -22.5743,-2.6151 -33.7209,-4.6335 14.3374,-1.6077 21.6496,-4.1692 32.7698,-4.2608zm-109.585 22.6238c17.1198,-0.1405 24.9881,2.7777 35.8825,4.4299 -10.3721,1.5847 -22.5495,4.2108 -34.9319,4.4645 -12.6657,0.2596 -22.5749,-2.615 -33.7215,-4.6334 14.3366,-1.6079 21.6496,-4.1694 32.7709,-4.261zm-37.8238 -7.97c17.1207,-0.1403 24.9882,2.7774 35.8829,4.4297 -10.3725,1.5848 -22.5504,4.2114 -34.9315,4.4648 -12.6665,0.2593 -22.5747,-2.615 -33.7222,-4.6334 14.3379,-1.6083 21.6499,-4.1696 32.7708,-4.2611zm-67.3647 8.6451l0 -8.5505c12.9413,0.5115 20.1239,2.9001 29.5866,4.3351 -8.8748,1.356 -19.072,3.4734 -29.5866,4.2154zm0 -14.6462l0 -8.5628c13.0097,0.5024 20.2057,2.9008 29.6946,4.34 -8.9053,1.3607 -19.1414,3.4876 -29.6946,4.2228zm67.4723 -8.6527c17.1203,-0.1406 24.9885,2.7775 35.8835,4.4299 -10.3727,1.585 -22.5501,4.2111 -34.9324,4.4644 -12.6657,0.2593 -22.5743,-2.6151 -33.721,-4.6335 14.3375,-1.6077 21.6497,-4.1692 32.7699,-4.2608z"/>
   <path id="_57207368" class="fil1" d="M367.848 12.3389l0 0.3739c-0.4131,-0.0776 -0.8272,-0.1546 -1.2434,-0.2299 0.4208,-0.0473 0.8343,-0.0953 1.2434,-0.144z"/>
  </g>
 </g>
</svg>
